<?xml version="1.0" encoding="UTF-8"?>
<svg id="Sefo_logo" xmlns="http://www.w3.org/2000/svg" viewBox="0 0 560 560">
    <defs>
        <style>
            .cls-1 {
            fill: lime;
            }
        </style>
    </defs>
    <path class="cls-1"
          d="M323.75,33.85c-77.65-13.73-160.53,9.39-220.52,69.37C12.78,193.67,6.14,336.18,83.28,434.29l248.34-248.34c-30.25-45.65-32.87-104.21-7.88-152.1ZM135.05,226.96c-25.38-25.38-25.38-66.54,0-91.92,25.38-25.38,66.54-25.38,91.92,0,25.38,25.38,25.38,66.54,0,91.92-25.38,25.38-66.54,25.38-91.92,0Z"/>
    <path class="cls-1"
          d="M526.15,236.25c-47.89,24.99-106.45,22.37-152.1-7.88l-248.34,248.34c98.11,77.15,240.62,70.51,331.07-19.94,59.99-59.99,83.1-142.87,69.37-220.52ZM333.04,424.95c-25.38-25.38-25.38-66.54,0-91.92,25.38-25.38,66.54-25.38,91.92,0s25.38,66.54,0,91.92-66.54,25.38-91.92,0Z"/>
</svg>