<svg xmlns="http://www.w3.org/2000/svg" id="Sefo_logo" viewBox="0 0 560 560">
    <defs>
        <style>.cls-1{fill:#0f0}</style>
    </defs>
    <path d="M323.75 33.85c-77.65-13.73-160.53 9.39-220.52 69.37-90.45 90.45-97.09 232.96-19.95 331.07l248.34-248.34c-30.25-45.65-32.87-104.21-7.88-152.1Zm-188.7 193.11c-25.38-25.38-25.38-66.54 0-91.92s66.54-25.38 91.92 0 25.38 66.54 0 91.92-66.54 25.38-91.92 0M526.15 236.25c-47.89 24.99-106.45 22.37-152.1-7.88L125.71 476.71c98.11 77.15 240.62 70.51 331.07-19.94 59.99-59.99 83.1-142.87 69.37-220.52m-193.11 188.7c-25.38-25.38-25.38-66.54 0-91.92s66.54-25.38 91.92 0 25.38 66.54 0 91.92-66.54 25.38-91.92 0"
          class="cls-1"/>
</svg>